<?xml version="1.0" encoding="utf-8"?>
<!-- Generator: Adobe Illustrator 25.1.0, SVG Export Plug-In . SVG Version: 6.00 Build 0)  -->
<svg version="1.1" id="レイヤー_1" xmlns="http://www.w3.org/2000/svg" xmlns:xlink="http://www.w3.org/1999/xlink" x="0px"
	 y="0px" viewBox="0 0 90.2 112" style="enable-background:new 0 0 90.2 112;" xml:space="preserve" preserveAspectRatio="xMinYMid" width="91" height="112">
<style type="text/css">
	.st0{fill:#EE0000;}
</style>
<path class="st0" d="M90.2,112c-0.2-3.7-1.1-6.9-2.5-9.6c-2.4-4.6-6.1-7.5-9.8-9.6c-3.7-2.1-7.4-3.2-9.9-4.2c-2-0.7-4.4-1.9-6.3-3.1
	c-0.9-0.6-1.7-1.2-2.1-1.7c0,0,0,0,0,0c1,0,2.4,0,4.1,0c3.9,0,9.3,0,15.6,0h2.4l-0.5-2.4c-0.9-4-1.2-8.2-1.2-13.2
	c0-7.5,0.7-16.8,0.7-30c0-13.3-5.2-23-12.3-29.2c-7.1-6.2-15.9-9-23.4-9c-7.4,0-16.3,2.8-23.4,9C14.6,15.2,9.4,24.9,9.4,38.2v0
	c0,0,0,0,0,0c0,13.2,0.7,22.5,0.7,30c0,5-0.3,9.2-1.2,13.2l-0.5,2.4h2.4c9.1,0,16.4,0,19.8,0c-0.1,0.1-0.1,0.1-0.2,0.2
	c-0.8,0.8-2.2,1.8-3.7,2.6c-1.5,0.8-3.2,1.6-4.4,2c-3.4,1.2-8.8,2.8-13.6,6.5C6.2,97,4,99.3,2.5,102.4C1.1,105,0.2,108.2,0,112H90.2
	z M30.3,88.9c1.1-0.7,2.2-1.5,3-2.4c0.4-0.5,0.8-1,1.1-1.5c0.3-0.6,0.5-1.2,0.5-1.9c0-1.9,0-4.2,0-7.3v-0.7l-0.5-0.6
	c-1.3-1.4-3.2-3.2-4.9-5.6c-1.7-2.3-3.3-5.2-3.9-8.5V40.3h39v19.9c-0.6,3.3-2.1,6.1-3.9,8.5c-1.8,2.4-3.6,4.2-4.9,5.6l-0.5,0.6v0.7
	c0,3.2,0,5.5,0,7.3c0,0.7,0.2,1.3,0.5,1.9c0.5,1,1.2,1.8,2,2.5c1.2,1.1,2.7,2,4.3,2.8c0.9,0.5,1.8,0.9,2.7,1.3
	c-0.2,0.4-0.5,0.7-0.9,1.1c-1.4,1.7-3.7,3.5-6.9,4.9c-3.1,1.4-7.1,2.4-12,2.4c-6.5,0-11.4-1.8-14.8-3.9c-1.7-1.1-3.1-2.3-4-3.4
	c-0.3-0.4-0.6-0.8-0.9-1.1C27,90.8,28.8,89.9,30.3,88.9z"/>
</svg>
