<?xml version="1.0" encoding="utf-8"?>
<!-- Generator: Adobe Illustrator 23.0.1, SVG Export Plug-In . SVG Version: 6.00 Build 0)  -->
<svg version="1.1" id="レイヤー_1" xmlns="http://www.w3.org/2000/svg" xmlns:xlink="http://www.w3.org/1999/xlink" x="0px"
	 y="0px" viewBox="0 0 97.6 126.9" style="enable-background:new 0 0 97.6 126.9;" xml:space="preserve" preserveAspectRatio="xMinYMid" width="98" height="127">
<style type="text/css">
	.st0{fill:#fff;}
</style>
<g>
	<polygon class="st0" points="75.9,14.1 75.9,22.8 89.5,22.9 89.5,116.6 8.1,116.6 8.1,22.9 21.7,22.8 21.7,14.1 0,14.1 0,126.9 
		97.6,126.9 97.6,14.1 	"/>
	<path class="st0" d="M71.8,27.5V6.7l-15.7,0C55.8,3,52.7,0,48.8,0c-3.9,0-7,3-7.4,6.8l-15.7,0v20.8H71.8z M48.8,4.1
		c1.9,0,3.4,1.5,3.4,3.4c0,1.9-1.5,3.4-3.4,3.4c-1.9,0-3.4-1.5-3.4-3.4C45.4,5.6,46.9,4.1,48.8,4.1z"/>
	<polygon class="st0" points="29.9,56.4 33.4,52.9 43.1,43.2 39.6,39.7 29.9,49.4 23.7,43.2 20.2,46.7 	"/>
	<polygon class="st0" points="39.6,63 29.9,72.7 23.7,66.5 20.2,70 29.9,79.7 33.4,76.2 43.1,66.5 	"/>
	<polygon class="st0" points="23.7,89.8 20.2,93.4 29.9,103 33.4,99.5 43.1,89.8 39.6,86.3 29.9,96 	"/>
</g>
</svg>
