<?xml version="1.0" encoding="utf-8"?>
<!-- Generator: Adobe Illustrator 23.0.1, SVG Export Plug-In . SVG Version: 6.00 Build 0)  -->
<svg version="1.1" id="レイヤー_1" xmlns="http://www.w3.org/2000/svg" xmlns:xlink="http://www.w3.org/1999/xlink" x="0px"
	 y="0px" viewBox="0 0 128 93.1" style="enable-background:new 0 0 128 93.1;" xml:space="preserve" preserveAspectRatio="xMinYMid" width="128" height="94">
<style type="text/css">
	.st0{fill:#fff;}
</style>
<g>
	<path class="st0" d="M56.5,45h-7v33h2.4c1.1-7.1,7.2-12.6,14.7-12.6c7.4,0,13.6,5.5,14.7,12.6h12.7c1.1-7.1,7.2-12.6,14.7-12.6
		s13.6,5.5,14.7,12.6h4.8V49.3c0-2.3-1.9-4.3-4.3-4.3H108V4.8c0-2.3-1.9-4.3-4.3-4.3H74.6c-3.9,0-7.3,2.6-8.2,6.4L56.5,45z
		 M69.5,42.5l7.8-30H96v30H69.5z"/>
	<polygon class="st0" points="37,77 37,0 46.5,0 46.5,83.5 0,83.5 0,77 	"/>
	<path class="st0" d="M95.7,80.2c0,7.1,5.7,12.8,12.8,12.8c7.1,0,12.8-5.7,12.8-12.8c0-7.1-5.7-12.8-12.8-12.8
		C101.5,67.4,95.7,73.2,95.7,80.2z M104.2,80.2c0-2.4,2-4.4,4.4-4.4c2.4,0,4.4,2,4.4,4.4c0,2.4-2,4.4-4.4,4.4
		C106.1,84.6,104.2,82.7,104.2,80.2z"/>
	<path class="st0" d="M53.7,80.2c0,7.1,5.7,12.8,12.8,12.8c7.1,0,12.8-5.7,12.8-12.8c0-7.1-5.7-12.8-12.8-12.8
		C59.5,67.4,53.7,73.2,53.7,80.2z M62.2,80.2c0-2.4,2-4.4,4.4-4.4c2.4,0,4.4,2,4.4,4.4c0,2.4-2,4.4-4.4,4.4
		C64.1,84.6,62.2,82.7,62.2,80.2z"/>
	<rect x="0.5" y="47.9" class="st0" width="31" height="25"/>
	<rect x="0.5" y="17.9" class="st0" width="31" height="25"/>
</g>
</svg>
