<?xml version="1.0" encoding="utf-8"?>
<!-- Generator: Adobe Illustrator 23.0.1, SVG Export Plug-In . SVG Version: 6.00 Build 0)  -->
<svg version="1.1" id="レイヤー_1" xmlns="http://www.w3.org/2000/svg" xmlns:xlink="http://www.w3.org/1999/xlink" x="0px"
	 y="0px" viewBox="0 0 33.5 24.6" style="enable-background:new 0 0 33.5 24.6;" xml:space="preserve" preserveAspectRatio="xMinYMid" width="34" height="25">
<style type="text/css">
	.st0{fill:#374149;}
</style>
<path class="st0" d="M4.3,5.2c1.4,0,2.6-1.2,2.6-2.6C6.9,1.2,5.7,0,4.3,0C2.8,0,1.7,1.2,1.7,2.6C1.7,4,2.8,5.2,4.3,5.2z"/>
<path class="st0" d="M0.4,17.8h1.9v6.8v0l0,0v0h2h2v-6.8v0h1.9c0.2,0,0.4-0.2,0.4-0.4V6.8c0-0.2-0.2-0.4-0.4-0.4H0.4
	C0.2,6.4,0,6.6,0,6.8v10.7C0,17.6,0.2,17.8,0.4,17.8z"/>
<path class="st0" d="M16.8,5.2c1.4,0,2.6-1.2,2.6-2.6c0-1.4-1.2-2.6-2.6-2.6c-1.4,0-2.6,1.2-2.6,2.6C14.2,4,15.3,5.2,16.8,5.2z"/>
<path class="st0" d="M12.8,17.8h1.9v6.8v0l0,0v0h2h2v-6.8h1.9c0.2,0,0.4-0.2,0.4-0.4V6.8c0-0.2-0.2-0.4-0.4-0.4h-7.8
	c-0.2,0-0.4,0.2-0.4,0.4v10.7C12.5,17.6,12.6,17.8,12.8,17.8z"/>
<path class="st0" d="M29.2,5.2c1.4,0,2.6-1.2,2.6-2.6c0-1.4-1.2-2.6-2.6-2.6s-2.6,1.2-2.6,2.6C26.6,4,27.8,5.2,29.2,5.2z"/>
<path class="st0" d="M25.3,17.8h1.9v6.8h2h2v-6.8h1.9c0.2,0,0.4-0.2,0.4-0.4V6.8c0-0.2-0.2-0.4-0.4-0.4h-7.8c-0.2,0-0.4,0.2-0.4,0.4
	v10.7C24.9,17.6,25.1,17.8,25.3,17.8z"/>
</svg>
