<?xml version="1.0" encoding="utf-8"?>
<!-- Generator: Adobe Illustrator 23.0.1, SVG Export Plug-In . SVG Version: 6.00 Build 0)  -->
<svg version="1.1" id="レイヤー_1" xmlns="http://www.w3.org/2000/svg" xmlns:xlink="http://www.w3.org/1999/xlink" x="0px"
	 y="0px" viewBox="0 0 128 114.6" style="enable-background:new 0 0 128 114.6;" xml:space="preserve" preserveAspectRatio="xMinYMid" width="128" height="115">
<style type="text/css">
	.st0{fill:#fff;}
</style>
<g>
	<path class="st0" d="M112.8,21.2C92,24.1,70.2,74.5,60.4,92.6c-2.5,4.5,3.3,8.3,5.8,4C68,93.4,78,73.7,78,73.7
		c10.9,0.4,14.9-7.2,10.5-11.9c14.6,0.3,21.8-7.7,17.7-12.6c4.4,1.4,8.1,0.5,13.7-2.6C131.9,40.1,131.4,18.2,112.8,21.2z"/>
	<path class="st0" d="M72.2,100.1c-2,3.4-5.3,5.4-9,5.4c-3.6,0-7.1-2-9-5.2c-2-3.3-2-7.5-0.1-11.1c1.5-2.8,3.3-6.4,5.4-10.6
		c9.3-18.4,18.6-35.8,28.5-47.9V0H0v114.6h88.1V78.9c-1.7,0.8-3.6,1.3-5.7,1.6C79.4,86.5,73.7,97.6,72.2,100.1z M18.3,28.1h42.1v7
		H18.3V28.1z M18.3,53.8h42.1v7H18.3V53.8z M44,86.5H18.3v-7H44V86.5z"/>
</g>
</svg>
