<?xml version="1.0" encoding="utf-8"?>
<!-- Generator: Adobe Illustrator 23.0.1, SVG Export Plug-In . SVG Version: 6.00 Build 0)  -->
<svg version="1.1" id="レイヤー_1" xmlns="http://www.w3.org/2000/svg" xmlns:xlink="http://www.w3.org/1999/xlink" x="0px"
	 y="0px" viewBox="0 0 128 128" style="enable-background:new 0 0 128 128;" xml:space="preserve" preserveAspectRatio="xMinYMid" width="128" height="128">
<style type="text/css">
	.st0{fill:#fff;}
</style>
<g>
	<polygon class="st0" points="112.6,43.1 113.1,43.1 113.1,0 96,0 96,30.2 64,5.2 0,55.2 0,128 34.3,128 34.3,113 17.1,113 
		17.1,61.9 64,25.3 110.9,61.9 110.9,113 110.9,128 128,128 128,55.2 	"/>
	<path class="st0" d="M47,128H81V72.6H47V128z M70.9,93c3.5,0,6.3,2.7,6.3,6s-2.8,6-6.3,6c-3.5,0-6.3-2.7-6.3-6S67.4,93,70.9,93z"/>
</g>
</svg>
