<?xml version="1.0" encoding="utf-8"?>
<!-- Generator: Adobe Illustrator 23.0.1, SVG Export Plug-In . SVG Version: 6.00 Build 0)  -->
<svg version="1.1" id="レイヤー_1" xmlns="http://www.w3.org/2000/svg" xmlns:xlink="http://www.w3.org/1999/xlink" x="0px"
	 y="0px" viewBox="0 0 43.4 64" style="enable-background:new 0 0 43.4 64;" xml:space="preserve" preserveAspectRatio="xMinYMid" width="44" height="64">
<style type="text/css">
	.st0{fill:#222;}
</style>
<g>
	<path class="st0" d="M28.9,32V4.1c0-2.2-1.8-4.1-4.1-4.1H11C8.7,0,6.9,1.8,6.9,4.1V32C2.2,35.6-0.4,41.3,0,47.4
		C0.7,56.4,8,63.5,17,64c0.3,0,0.6,0,0.9,0c9.9,0,17.9-8,17.9-17.9C35.8,40.5,33.2,35.3,28.9,32z M5.5,53.3
		c-1.1-1.8-1.8-3.9-1.9-6.2c-0.4-5.6,2.3-10.6,6.9-13.3V4.1c0-0.3,0.2-0.5,0.5-0.5h13.8c0.3,0,0.5,0.2,0.5,0.5v29.8
		c4.2,2.5,6.9,7.1,6.9,12.3c0,7.9-6.4,14.3-14.3,14.3c-0.2,0-0.5,0-0.8,0c-2.3-0.1-4.4-0.8-6.3-1.8C8.7,57.3,6.8,55.5,5.5,53.3z"/>
	<path class="st0" d="M27.7,46.1c0-4.4-2.9-8.1-6.9-9.4V9l0,0C20,9.4,19,9.6,17.9,9.6c-0.9,0-1.8-0.2-2.5-0.5C15.2,9.1,15.1,9,15,9
		v0c0,0,0,0,0,0v27.8c-4,1.2-6.9,5-6.9,9.4c0,5.4,4.4,9.8,9.8,9.8C23.3,55.9,27.7,51.5,27.7,46.1z M14.2,41.4c1-0.8,2.3-0.8,3,0.1
		c0.7,0.9,0.5,2.2-0.4,3c-0.9,0.8-2.4,0.6-3-0.1C13.2,43.7,13.3,42.2,14.2,41.4z"/>
	<polygon class="st0" points="43.4,28.7 35.3,28.7 35.3,30.7 43.4,30.7 43.4,30.7 43.4,28.7 	"/>
	<polygon class="st0" points="43.4,7.5 43.4,5.5 35.3,5.5 35.3,5.5 35.3,7.5 35.3,7.5 	"/>
	<polygon class="st0" points="39.4,12.8 39.4,11.8 39.4,11.8 39.4,11.8 39.4,11.8 35.3,11.8 35.3,11.8 35.3,12.8 35.3,12.8 	"/>
	<polygon class="st0" points="35.3,23.4 35.3,24.4 39.4,24.4 39.4,23.4 39.4,23.4 39.4,23.4 39.4,23.4 	"/>
	<polygon class="st0" points="43.4,19.1 43.4,19.1 43.4,17.1 35.3,17.1 35.3,17.1 35.3,19.1 35.3,19.1 	"/>
</g>
</svg>
