<?xml version="1.0" encoding="utf-8"?>
<!-- Generator: Adobe Illustrator 23.0.1, SVG Export Plug-In . SVG Version: 6.00 Build 0)  -->
<svg version="1.1" id="レイヤー_1" xmlns="http://www.w3.org/2000/svg" xmlns:xlink="http://www.w3.org/1999/xlink" x="0px"
	 y="0px" viewBox="0 0 128 97.8" style="enable-background:new 0 0 128 97.8;" xml:space="preserve" preserveAspectRatio="xMinYMid" width="128" height="98">
<style type="text/css">
	.st0{fill:#fff;}
</style>
<g>
	<path class="st0" d="M124.4,0H63c-2,0-3.6,1.6-3.6,3.6v56.7c0,2,1.6,3.6,3.6,3.6h61.4c2,0,3.6-1.6,3.6-3.6V3.6
		C128,1.6,126.4,0,124.4,0z M122,57.9H65.4V6H122V57.9z"/>
	<path class="st0" d="M29.2,73.5c-6.7,0-12.2,5.4-12.2,12.2c0,6.7,5.4,12.2,12.2,12.2c6.7,0,12.2-5.4,12.2-12.2
		C41.3,78.9,35.9,73.5,29.2,73.5z M29.2,91.1c-3,0-5.5-2.4-5.5-5.5c0-3,2.4-5.5,5.5-5.5c3,0,5.5,2.4,5.5,5.5
		C34.6,88.6,32.2,91.1,29.2,91.1z"/>
	<path class="st0" d="M100.9,73.5c-6.7,0-12.1,5.4-12.1,12.2c0,6.7,5.4,12.2,12.1,12.2c6.7,0,12.2-5.4,12.2-12.2
		C113.1,78.9,107.7,73.5,100.9,73.5z M100.9,91.1c-3,0-5.5-2.4-5.5-5.5c0-3,2.4-5.5,5.5-5.5c3,0,5.5,2.4,5.5,5.5
		C106.4,88.6,104,91.1,100.9,91.1z"/>
	<path class="st0" d="M50,17H22.6c-0.9,0-1.7,0.4-2.3,1.1L0.7,41.7C0.2,42.2,0,42.9,0,43.6v20.6V75c0,1.7,1.3,3,3,3h9.2
		c2.9-6.5,9.4-11,17-11c7.5,0,14,4.5,17,11H53v-58C53,18.4,51.7,17,50,17z M11,43.9c0-0.7,0.2-1.4,0.7-2l12.5-15.4
		c0.6-0.7,1.5-1.1,2.4-1.1h12.3c1.7,0,3.1,1.4,3.1,3.1V46c0,1.7-1.4,3.1-3.1,3.1H14.1c-1.7,0-3.1-1.4-3.1-3.1V43.9z"/>
	<path class="st0" d="M60.9,69.6c-0.9,0-1.7,0.8-1.7,1.7v5.1c0,0.9,0.8,1.7,1.7,1.7H84c1.6-3.6,4.3-6.5,7.6-8.5H60.9z"/>
	<path class="st0" d="M126.1,69.6h-15.8c3.3,2,6,4.9,7.6,8.5h8.2c0.9,0,1.7-0.8,1.7-1.7v-5.1C127.8,70.3,127,69.6,126.1,69.6z"/>
</g>
<rect x="73.4" y="14" class="st0" width="40.6" height="7"/>
<rect x="73.4" y="28" class="st0" width="40.6" height="7"/>
<rect x="73.4" y="42" class="st0" width="40.6" height="7"/>
</svg>
