<?xml version="1.0" encoding="utf-8"?>
<!-- Generator: Adobe Illustrator 23.0.1, SVG Export Plug-In . SVG Version: 6.00 Build 0)  -->
<svg version="1.1" id="レイヤー_1" xmlns="http://www.w3.org/2000/svg" xmlns:xlink="http://www.w3.org/1999/xlink" x="0px"
	 y="0px" viewBox="0 0 63.2 64" style="enable-background:new 0 0 63.2 64;" xml:space="preserve" preserveAspectRatio="xMinYMid" width="64" height="64">
<style type="text/css">
	.st0{fill:#222;}
</style>
<g>
	<path class="st0" d="M5,44.2c-2.6,0-4.6-2.3-4.7-5.2l-0.1-1l-0.1-1l0,0.2l0-0.2L0,48.3c-0.1,4.4,2.9,7.9,6.7,7.9h1.2
		c-0.1-0.3-0.1-0.7-0.1-1v-4.5l0-0.6l0.2-5.8l0-0.2h0l0,0H5z"/>
	<path class="st0" d="M55.3,22.6h4.1c1.5,0,2.8,0.8,3.6,1.9L62.8,6.7c0-3.7-2.6-6.7-5.5-6.7H6C3,0,0.5,3.1,0.4,6.7l-0.1,9.7
		l-0.1,8.1c0,0,0,0,0,0v0c0.9-1.2,2.1-1.9,3.6-1.9H8L8,21c0.2-4.5,3.9-8.1,8.3-8.1h30.5c4.5,0,8.1,3.5,8.3,8.1L55.3,22.6z"/>
	<path class="st0" d="M63.2,42.6l0-5.6l0,0.2l0-0.2l-0.2,2c-0.1,2.9-2.1,5.2-4.7,5.2h-2l-0.1,0v0h0l0.2,4.9l0.1,1.5v0.5v4.1
		c0,0.3,0,0.6-0.1,1c0,0,0,0,0,0.1h0c0,0,0,0,0,0h0.1c3.8,0,6.8-3.5,6.7-7.9L63.2,42.6z"/>
	<path class="st0" d="M10.8,55.2c0,2,1.6,3.6,3.5,3.6h1.5v4.2c0,0.5,0.4,0.9,0.9,0.9h3.5c0.5,0,0.9-0.4,0.9-0.9v-4.2H42v4.2
		c0,0.5,0.4,0.9,0.9,0.9h3.5c0.5,0,0.9-0.4,0.9-0.9v-4.2h1.5c2,0,3.5-1.6,3.5-3.6v-2.1H10.8V55.2z"/>
	<path class="st0" d="M59.9,38.8L61,27.9c0-1.3-0.8-2.4-1.7-2.4h-4.5c-0.2,0-0.3,0-0.5,0.1L55,41.2h3.3
		C59.2,41.2,59.9,40.1,59.9,38.8z"/>
	<path class="st0" d="M3.9,25.6c-0.9,0-1.7,1.1-1.7,2.4l1.1,10.9c0,1.3,0.8,2.4,1.7,2.4h3.3l0.7-15.5c-0.1-0.1-0.3-0.1-0.5-0.1H3.9z
		"/>
	<path class="st0" d="M52,39.8l-0.8-18.6c-0.1-2.4-2-4.3-4.3-4.3H16.4c-2.3,0-4.2,1.9-4.3,4.3l-0.8,18.6l-0.3,7.1l-0.2,4.1
		c0,0.3,0.2,0.5,0.5,0.5H52c0.3,0,0.5-0.2,0.5-0.5l-0.2-4.1L52,39.8z M16.2,26.8c0.1-2.3,2.1-4,4.5-4h21.8c2.4,0,4.4,1.8,4.5,4
		l0.3,6.6l0,0.3H17.3l-1.4,0L16.2,26.8z M20.4,46.8h-1.9h-4.2h-1.7l-0.1,0l0.3-7.1h1c0.1,0,0.2,0,0.4,0c0.4,0,0.8,0.1,1.2,0.2
		c2.8,0.7,4.8,3.2,4.8,6.2V46.8z M38.8,45.9H24.4v-1.6h14.4V45.9z M38.8,42.2H24.4v-1.6h14.4V42.2z M48.8,46.8h-4.2h-1.9v-0.7
		c0-3,2-5.5,4.8-6.2c0.4-0.1,0.8-0.2,1.2-0.2c0.1,0,0.2,0,0.4,0h1l0.3,6.8l0,0.3H48.8z"/>
</g>
</svg>
