<?xml version="1.0" encoding="utf-8"?>
<!-- Generator: Adobe Illustrator 23.0.1, SVG Export Plug-In . SVG Version: 6.00 Build 0)  -->
<svg version="1.1" id="レイヤー_1" xmlns="http://www.w3.org/2000/svg" xmlns:xlink="http://www.w3.org/1999/xlink" x="0px"
	 y="0px" viewBox="0 0 128 103.6" style="enable-background:new 0 0 128 103.6;" xml:space="preserve" preserveAspectRatio="xMinYMid" width="128" height="104">
<style type="text/css">
	.st0{fill:#fff;}
</style>
<g>
	<path class="st0" d="M71.3,103.6c0-10.3-2.2-43.1,0-48.9c2.2-5.8,11.4-8.5,19.9-10.7c8.5-2.2,33.9-12.1,36.6-27.2
		c2.7-15.2-25.4-25.4-45.5-6.7C62.2,28.9,66.2,48.5,64,48.5c-2.2,0,1.8-19.6-18.3-38.4C25.6-8.6-2.5,1.6,0.2,16.8
		C2.9,32,28.3,41.8,36.8,44c8.5,2.2,17.7,4.5,19.9,10.3c2.2,5.8,0,39.1,0,49.3H71.3z"/>
</g>
</svg>
