<?xml version="1.0" encoding="utf-8"?>
<!-- Generator: Adobe Illustrator 23.0.1, SVG Export Plug-In . SVG Version: 6.00 Build 0)  -->
<svg version="1.1" id="レイヤー_1" xmlns="http://www.w3.org/2000/svg" xmlns:xlink="http://www.w3.org/1999/xlink" x="0px"
	 y="0px" viewBox="0 0 128 125.8" style="enable-background:new 0 0 128 125.8;" xml:space="preserve" preserveAspectRatio="xMinYMid" width="128" height="126">
<style type="text/css">
	.st0{fill:#222222;}
</style>
<g>
	<polygon class="st0" points="14,111.8 14,0 0,0 0,125.8 125.8,125.8 125.8,111.8 	"/>
	<path class="st0" d="M33.4,83.6l20.4-33.5c0.7,0.1,1.4,0.2,2.1,0.2c2.3,0,4.4-0.6,6.3-1.6l21.1,17.9c-0.4,1.2-0.6,2.6-0.6,3.9
		c0,7.3,5.9,13.2,13.2,13.2c7.3,0,13.2-5.9,13.2-13.2c0-3.1-1.1-5.9-2.9-8.2l21.8-37l-8.3-5.2L97.9,57.5c-0.7-0.1-1.4-0.2-2.1-0.2
		c-2.3,0-4.5,0.6-6.4,1.7l-21-17.8c0.4-1.3,0.7-2.7,0.7-4.1c0-7.3-5.9-13.2-13.2-13.2c-7.3,0-13.2,5.9-13.2,13.2c0,3,1,5.8,2.7,8
		L25,78.5L33.4,83.6z"/>
</g>
</svg>
