<?xml version="1.0" encoding="utf-8"?>
<!-- Generator: Adobe Illustrator 23.0.1, SVG Export Plug-In . SVG Version: 6.00 Build 0)  -->
<svg version="1.1" id="レイヤー_1" xmlns="http://www.w3.org/2000/svg" xmlns:xlink="http://www.w3.org/1999/xlink" x="0px"
	 y="0px" viewBox="0 0 128 110.6" style="enable-background:new 0 0 128 110.6;" xml:space="preserve" preserveAspectRatio="xMinYMid" width="128" height="111">
<style type="text/css">
	.st0{fill:#fff;}
</style>
<g>
	<path class="st0" d="M100.4,0H70.1H57.9H27.6L0,36.2v1.6v72.7h128V36.2L100.4,0z M95.6,9.7l19.2,25.2H76.3h-0.5L71,9.7H95.6z
		 M32.4,9.7H57l-4.7,25.2h-0.5H13.1L32.4,9.7z M118.3,100.9H9.7V40.7h41.8V56h25V40.7h41.8V100.9z"/>
</g>
<path class="st0" d="M81,70.6c0,3.3-2.7,6-6,6H53c-3.3,0-6-2.7-6-6l0,0c0-3.3,2.7-6,6-6h22C78.3,64.6,81,67.3,81,70.6L81,70.6z"/>
</svg>
