<?xml version="1.0" encoding="utf-8"?>
<!-- Generator: Adobe Illustrator 23.0.1, SVG Export Plug-In . SVG Version: 6.00 Build 0)  -->
<svg version="1.1" id="レイヤー_1" xmlns="http://www.w3.org/2000/svg" xmlns:xlink="http://www.w3.org/1999/xlink" x="0px"
	 y="0px" viewBox="0 0 128 103.2" style="enable-background:new 0 0 128 103.2;" xml:space="preserve" preserveAspectRatio="xMinYMid" width="128" height="104">
<style type="text/css">
	.st0{fill:#fff;}
</style>
<g>
	<path class="st0" d="M0,36.9v66.3h52.7V79.1h22.5v24.1H128V36.9H0z M26.3,90.4h-9.9V79.4h9.9V90.4z M26.3,62.4h-9.9V51.4h9.9V62.4z
		 M69,62.4H59V51.4H69V62.4z M111.6,90.4h-9.9V79.4h9.9V90.4z M111.6,62.4h-9.9V51.4h9.9V62.4z"/>
	<rect x="65.9" class="st0" width="19.3" height="30.9"/>
	<rect x="19.6" class="st0" width="19.3" height="30.9"/>
	<rect x="42.8" class="st0" width="19.3" height="30.9"/>
	<rect x="0.2" class="st0" width="15.6" height="30.9"/>
	<rect x="112.2" class="st0" width="15.6" height="30.9"/>
	<rect x="89.1" class="st0" width="19.3" height="30.9"/>
</g>
</svg>
