<?xml version="1.0" encoding="utf-8"?>
<!-- Generator: Adobe Illustrator 23.0.1, SVG Export Plug-In . SVG Version: 6.00 Build 0)  -->
<svg version="1.1" id="レイヤー_1" xmlns="http://www.w3.org/2000/svg" xmlns:xlink="http://www.w3.org/1999/xlink" x="0px"
	 y="0px" viewBox="0 0 103.2 128" style="enable-background:new 0 0 103.2 128;" xml:space="preserve" preserveAspectRatio="xMinYMid" width="104" height="128">
<style type="text/css">
	.st0{fill:#fff;}
</style>
<g>
	<path class="st0" d="M0,0v128h103.2v-4.1V0H0z M95,119.7H57.8v-12.4V95H45.4v12.4v12.4H8.3V8.3H95V119.7z"/>
	<rect x="20.6" y="20.6" class="st0" width="12.4" height="12.4"/>
	<rect x="45.4" y="20.6" class="st0" width="12.4" height="12.4"/>
	<rect x="70.2" y="20.6" class="st0" width="12.4" height="12.4"/>
	<rect x="20.6" y="45.4" class="st0" width="12.4" height="12.4"/>
	<rect x="45.4" y="45.4" class="st0" width="12.4" height="12.4"/>
	<rect x="70.2" y="45.4" class="st0" width="12.4" height="12.4"/>
	<rect x="20.6" y="70.2" class="st0" width="12.4" height="12.4"/>
	<rect x="45.4" y="70.2" class="st0" width="12.4" height="12.4"/>
	<rect x="70.2" y="70.2" class="st0" width="12.4" height="12.4"/>
	<rect x="20.6" y="95" class="st0" width="12.4" height="12.4"/>
	<rect x="70.2" y="95" class="st0" width="12.4" height="12.4"/>
</g>
</svg>
