<?xml version="1.0" encoding="utf-8"?>
<!-- Generator: Adobe Illustrator 23.0.1, SVG Export Plug-In . SVG Version: 6.00 Build 0)  -->
<svg version="1.1" id="レイヤー_1" xmlns="http://www.w3.org/2000/svg" xmlns:xlink="http://www.w3.org/1999/xlink" x="0px"
	 y="0px" viewBox="0 0 64 62.5" style="enable-background:new 0 0 64 62.5;" xml:space="preserve" preserveAspectRatio="xMinYMid" width="64" height="63">
<style type="text/css">
	.st0{fill:#222;}
</style>
<g>
	<polygon class="st0" points="26.8,46 26.8,46 15.7,46 15.7,56.5 26.8,56.5 26.8,46.1 26.8,46 	"/>
	<polygon class="st0" points="26.8,32 15.8,32 15.7,32 15.7,32 15.7,32 15.7,42.6 26.8,42.6 26.8,32.1 26.8,32.1 26.8,32.1 	"/>
	<rect x="30.5" y="46" class="st0" width="11.1" height="10.5"/>
	<polygon class="st0" points="32,0 0,9 0,12.8 0,18.7 0,20.4 0,62.5 8.1,62.5 8.1,24.7 55.9,24.7 55.9,62.4 55.9,62.5 55.9,62.5 
		55.9,62.5 64,62.5 64,20.4 64,18.7 64,12.8 64,9 	"/>
</g>
</svg>
