<?xml version="1.0" encoding="utf-8"?>
<!-- Generator: Adobe Illustrator 23.0.1, SVG Export Plug-In . SVG Version: 6.00 Build 0)  -->
<svg version="1.1" id="レイヤー_1" xmlns="http://www.w3.org/2000/svg" xmlns:xlink="http://www.w3.org/1999/xlink" x="0px"
	 y="0px" viewBox="0 0 128 69.5" style="enable-background:new 0 0 128 69.5;" xml:space="preserve" preserveAspectRatio="xMinYMid" width="128" height="70">
<style type="text/css">
	.st0{fill:#FF0000;}
</style>
<g>
	<path class="st0" d="M126.7,6.1c0.3-1.7-1.1-4.5-4.6-3.3c-7.5,2.6-20.2,8.2-26.3,17.8C90.3,8.5,78.2,0,64,0
		C49.4,0,36.8,9.1,31.7,21.9c-7.6-9-17.4-15.4-22.6-18.5c-2.2-1.3-4.2-1.2-5,0.5C2.5,7.3,0,14,0,23.3c0,12.1,3.8,26.8,1.3,39.7
		c-0.3,1.7,1.1,4.5,4.6,3.3c7.5-2.6,20-8.2,26.2-17.7C37.5,60.9,49.8,69.5,64,69.5c14.7,0,27.3-9.2,32.4-22.1
		c7.6,8.9,17.3,15.3,22.5,18.4c2.2,1.3,4.2,1.2,5-0.5c1.6-3.4,4.1-10.2,4.1-19.4C128,33.7,124.2,19,126.7,6.1z M5.4,43.9
		c-0.2-2.3-0.4-4.5-0.7-6.8c-0.2-1.4-0.3-2.9-0.4-4.3l16.6-16.6c2.1,1.8,4.2,3.8,6.2,5.9L5.4,43.9z M45.4,59.6
		c-2.3-1.7-4.3-3.8-6.1-6.1L82.8,10c2.3,1.7,4.3,3.8,6.1,6.1L45.4,59.6z M108.4,53.9c-2.1-1.7-4.3-3.7-6.3-5.8l20.8-20.8
		c0.2,1.6,0.3,3.2,0.5,4.7c0.2,2.2,0.5,4.3,0.6,6.3L108.4,53.9z"/>
</g>
</svg>
