<?xml version="1.0" encoding="utf-8"?>
<!-- Generator: Adobe Illustrator 23.0.1, SVG Export Plug-In . SVG Version: 6.00 Build 0)  -->
<svg version="1.1" id="レイヤー_1" xmlns="http://www.w3.org/2000/svg" xmlns:xlink="http://www.w3.org/1999/xlink" x="0px"
	 y="0px" viewBox="0 0 64 56.7" style="enable-background:new 0 0 64 56.7;" xml:space="preserve" preserveAspectRatio="xMinYMid" width="64" height="57">
<style type="text/css">
	.st0{fill:#222;}
</style>
<g>
	<path class="st0" d="M61.8,0H2.2C1,0,0,1,0,2.2v42.3c0,1.2,1,2.2,2.2,2.2H20l2.7-5.3l0.1-0.3l0.1-0.1h0l0,0H5.7v-6.6L18.6,25
		l4.1-2.9l0,0l0,0l-2.4-1.8L11.1,27l-5.4,3.9V8.7h3.6l24.5,17.7L54.1,41h-9l-4,0l0,0h0l1.9,3.8l1,1.9h17.8c1.2,0,2.2-1,2.2-2.2V2.2
		C64,1,63,0,61.8,0z M35,2.3V6h-6V2.3H35L35,2.3z M58.7,2.3V6h-6V2.3H58.7L58.7,2.3z M58.3,38.7L40.8,26.1H46h12.3h0.1v7.9
		L58.3,38.7z M46.9,2.3V6h-6V2.3H46.9L46.9,2.3z M36.3,8.7l-5.5,4l-1.7,1.2l0,0l0,0l2.4,1.8l9.7-7h17.1l0.1,0v14.6v0H42h-5.1
		L16.6,8.7h10.8L36.3,8.7z"/>
	<path class="st0" d="M43.3,50.2l-2.3-4.5l-1.7-3.4L38.2,40l-4.1-8c-0.4-0.8-1.2-1.3-2.1-1.3c-0.9,0-1.7,0.5-2.2,1.3l-1.3,2.5
		l-3.9,7.8l-5.5,10.8c-0.4,0.7-0.4,1.6,0.1,2.3c0.4,0.7,1.2,1.1,2.1,1.1c0.1,0,0.4,0,0.8-0.1l10-3l9.9,3c0.4,0.1,0.7,0.1,0.8,0.1
		c0.8,0,1.6-0.4,2-1.1c0.4-0.7,0.5-1.6,0.1-2.4L43.3,50.2z M26.3,50.1l1.2-2.3l1.6-3.1l2.9-5.8l1.7,3.4l1,1.9l0.2,0.4l1.6,3.2
		l1.1,2.2L32,48.4l-3.4,1L26.3,50.1z"/>
	<polygon class="st0" points="18,38.6 18,34.4 11.1,34.4 11.1,38.6 11.1,38.6 11.1,38.6 11.1,38.6 	"/>
</g>
</svg>
