<?xml version="1.0" encoding="utf-8"?>
<!-- Generator: Adobe Illustrator 23.0.1, SVG Export Plug-In . SVG Version: 6.00 Build 0)  -->
<svg version="1.1" id="レイヤー_1" xmlns="http://www.w3.org/2000/svg" xmlns:xlink="http://www.w3.org/1999/xlink" x="0px"
	 y="0px" viewBox="0 0 35.9 64" style="enable-background:new 0 0 35.9 64;" xml:space="preserve" preserveAspectRatio="xMinYMid" width="36" height="64">
<style type="text/css">
	.st0{fill:#222;}
</style>
<g>
	<path class="st0" d="M27.1,0H8.9C4,0,0,4,0,8.9v46.3C0,60,4,64,8.9,64h18.2c4.9,0,8.9-4,8.9-8.9V8.9C35.9,4,31.9,0,27.1,0z
		 M26.2,40.8c-2.5,0-4.5-2-4.5-4.5c0-2.5,2-4.5,4.5-4.5c2.5,0,4.5,2,4.5,4.5C30.7,38.8,28.7,40.8,26.2,40.8z M5.3,14.7h25.2
		c0.9,0,1.7,0.8,1.7,1.7v1.7c0,0.9-0.8,1.7-1.7,1.7H5.3c-0.9,0-1.7-0.8-1.7-1.7v-1.7C3.6,15.5,4.4,14.7,5.3,14.7z M30.6,11.8H5.3
		c-0.9,0-1.7-0.8-1.7-1.7V8.4c0-0.9,0.8-1.7,1.7-1.7h25.2c0.9,0,1.7,0.8,1.7,1.7v1.7C32.3,11,31.5,11.8,30.6,11.8z M4.2,57.1h19.9
		l7.6,0c-0.8,1.8-2.6,3.1-4.7,3.1H8.9C6.8,60.2,5,58.9,4.2,57.1z"/>
	<path class="st0" d="M26.2,34.1c-1.2,0-2.1,1-2.1,2.2c0,1.2,1,2.1,2.1,2.1s2.2-1,2.2-2.1C28.3,35.1,27.4,34.1,26.2,34.1z"/>
</g>
</svg>
