<?xml version="1.0" encoding="utf-8"?>
<!-- Generator: Adobe Illustrator 23.0.1, SVG Export Plug-In . SVG Version: 6.00 Build 0)  -->
<svg version="1.1" id="レイヤー_1" xmlns="http://www.w3.org/2000/svg" xmlns:xlink="http://www.w3.org/1999/xlink" x="0px"
	 y="0px" viewBox="0 0 45.3 64" style="enable-background:new 0 0 45.3 64;" xml:space="preserve" preserveAspectRatio="xMinYMid" width="46" height="64">
<style type="text/css">
	.st0{fill:#222;}
</style>
<g>
	<path class="st0" d="M44.7,48c-0.3-0.7-0.8-1.4-1.3-2.1c-0.9-1-2.1-1.9-3.6-2.7c-1.1-0.6-2.4-1.1-3.8-1.5c-0.1,0-0.2-0.1-0.3-0.1
		c-0.1,0-0.2-0.1-0.3-0.1c0,0,0.1,0,0.1,0c0,0-0.1,0-0.1,0c0.2,0.1,0.4,0.2,0.6,0.3c1.3,0.7,2.4,1.4,3.4,2.2c1.2,1,2.1,2,2.7,3
		c0.7,1.2,0.9,2.5,0.7,3.6c-0.2,1-0.8,1.9-1.8,2.9c-2,1.8-5,2.8-6.7,3.2c-2,0.5-4.2,0.9-6.7,1.1c-1.7,0.1-3.2,0.1-4.5,0.1h-0.9
		c-1.3,0-2.8,0-4.5-0.1c-2.5-0.2-4.7-0.5-6.7-1.1c-1.6-0.4-4.6-1.4-6.7-3.2c-1-0.9-1.6-1.8-1.8-2.8c-0.3-1.1,0-2.4,0.7-3.6
		c0.6-1,1.5-2.1,2.7-3c1-0.8,2.1-1.5,3.4-2.2c0.1-0.1,0.3-0.1,0.4-0.2c0.1,0,0.1,0,0.2-0.1c0,0-0.1,0-0.1,0c0,0,0.1,0,0.1,0
		c-0.2,0.1-0.4,0.1-0.6,0.2c-1.4,0.4-2.7,0.9-3.8,1.5C4,44,2.8,44.8,1.9,45.9c-0.6,0.7-1,1.4-1.3,2.1C0.2,48.8,0,49.7,0,50.5
		c0,0.9,0.1,1.8,0.5,2.7c0.3,0.8,0.7,1.6,1.3,2.3c0.9,1.2,2.1,2.3,3.6,3.4c1.2,0.8,2.5,1.6,4,2.2C15,63.6,20.1,64,22.7,64
		c2.6,0,7.7-0.4,13.3-2.9c1.5-0.6,2.8-1.4,4-2.2c1.5-1,2.7-2.2,3.6-3.4c0.6-0.8,1-1.5,1.3-2.3c0.3-0.9,0.5-1.8,0.5-2.7
		C45.3,49.7,45.1,48.8,44.7,48z"/>
	<path class="st0" d="M40.2,17.5C40.2,7.9,32.3,0,22.7,0C13,0,5.1,7.9,5.1,17.5c0,11.1,17.5,35.2,17.5,35.2S40.2,28.7,40.2,17.5z
		 M22.7,10.9c3.7,0,6.6,3,6.6,6.7c0,3.7-3,6.6-6.6,6.6c-3.7,0-6.7-3-6.7-6.6C16,13.9,19,10.9,22.7,10.9z"/>
</g>
</svg>
