<?xml version="1.0" encoding="utf-8"?>
<!-- Generator: Adobe Illustrator 23.0.1, SVG Export Plug-In . SVG Version: 6.00 Build 0)  -->
<svg version="1.1" id="レイヤー_1" xmlns="http://www.w3.org/2000/svg" xmlns:xlink="http://www.w3.org/1999/xlink" x="0px"
	 y="0px" viewBox="0 0 62.5 64" style="enable-background:new 0 0 62.5 64;" xml:space="preserve" preserveAspectRatio="xMinYMid" width="63" height="64">
<style type="text/css">
	.st0{fill:#222;}
</style>
<g>
	<path class="st0" d="M61.4,15.7l-8.6-15C52.5,0.2,52.1,0,51.6,0H10.8c-0.5,0-0.9,0.2-1.1,0.6L0,17.6v44.5C0,63.1,0.9,64,1.9,64
		h58.6c1.1,0,1.9-0.9,1.9-1.9V17.6L61.4,15.7z M23.5,6l1.9,0l-2.1,10.6H12.5l-3.2,0l-1.6,0l6-10.6L23.5,6z M24.1,34.1h14.2
		c0.6,0,1.1-0.5,1.1-1.1V20.5h16.8v37.1v0.2h-50V20.5H23v12.6C23,33.7,23.5,34.1,24.1,34.1z M54.7,16.5H39.2l-1.8-8.9L37.1,6h11.6
		l4,7l1.3,2.4L54.7,16.5z"/>
	<polygon class="st0" points="38.6,42.2 38.5,42.2 38.5,42.2 38.5,42.2 44.1,42.2 41.8,39.3 41.4,38.8 41.3,38.7 41.3,38.7 
		41.3,38.7 41.3,38.7 41.3,38.6 39.6,40.8 38.9,41.7 38.5,42.2 	"/>
	<polygon class="st0" points="42.8,50.3 42.8,43.2 39.8,43.2 39.8,50.3 39.8,50.3 39.8,50.3 39.8,50.3 	"/>
	<polygon class="st0" points="45.4,42.2 45.4,42.2 45.4,42.2 45.4,42.2 51,42.2 48.7,39.3 48.3,38.8 48.2,38.7 48.2,38.7 48.2,38.7 
		48.2,38.7 48.2,38.6 46.5,40.8 45.8,41.7 45.4,42.2 	"/>
	<polygon class="st0" points="49.7,50.3 49.7,43.2 46.7,43.2 46.7,50.3 46.7,50.3 46.7,50.3 46.7,50.3 	"/>
	<polygon class="st0" points="38.2,53.3 38.2,53.3 38.2,53.3 38.2,53.3 51.3,53.3 51.3,51.5 51.3,51.5 51.3,51.5 51.3,51.5 
		38.2,51.5 38.2,53.3 38.2,53.3 	"/>
</g>
</svg>
