<?xml version="1.0" encoding="utf-8"?>
<!-- Generator: Adobe Illustrator 23.0.1, SVG Export Plug-In . SVG Version: 6.00 Build 0)  -->
<svg version="1.1" id="レイヤー_1" xmlns="http://www.w3.org/2000/svg" xmlns:xlink="http://www.w3.org/1999/xlink" x="0px"
	 y="0px" viewBox="0 0 64 64" style="enable-background:new 0 0 64 64;" xml:space="preserve">
<style type="text/css">
	.st0{fill:#222;}
</style>
<g>
	<path class="st0" d="M32,0C14.3,0,0,14.3,0,32c0,17.7,14.3,32,32,32c17.7,0,32-14.3,32-32C64,14.3,49.7,0,32,0z M32,56
		C18.8,56,8,45.2,8,32C8,18.8,18.8,8,32,8c13.2,0,24,10.8,24,24C56,45.2,45.2,56,32,56z"/>
	<path class="st0" d="M11.2,30.4c0,0.5-0.1,1.1-0.1,1.6s0,1.1,0.1,1.6h4.3c-0.1-0.5-0.1-1.1-0.1-1.6s0-1.1,0.1-1.6H11.2z"/>
	<path class="st0" d="M52.8,30.4h-4.3c0.1,0.5,0.1,1.1,0.1,1.6s0,1.1-0.1,1.6h4.3c0-0.5,0.1-1.1,0.1-1.6S52.8,30.9,52.8,30.4z"/>
	<path class="st0" d="M33.6,15.6v-4.3c-0.5,0-1.1-0.1-1.6-0.1c-0.5,0-1.1,0-1.6,0.1v4.3c0.5-0.1,1.1-0.1,1.6-0.1
		S33.1,15.5,33.6,15.6z"/>
	<path class="st0" d="M30.4,48.4v4.3c0.5,0,1.1,0.1,1.6,0.1c0.5,0,1.1,0,1.6-0.1v-4.3c-0.5,0.1-1.1,0.1-1.6,0.1S30.9,48.5,30.4,48.4
		z"/>
	<path class="st0" d="M24,14.5c-0.6-0.9-1.8-1.3-2.8-0.7c-1,0.6-1.3,1.8-0.7,2.7l7.2,11.9c0.9-1,2.1-1.8,3.5-1.9L24,14.5z"/>
	<path class="st0" d="M42.9,37.5l-5.6-4.2c-0.3,1.4-1.2,2.5-2.3,3.3l5.5,4.1c0.4,0.3,0.8,0.4,1.2,0.4c0.6,0,1.2-0.3,1.6-0.8
		C44,39.4,43.8,38.1,42.9,37.5z"/>
	<path class="st0" d="M32,29.3c-1.5,0-2.7,1.2-2.7,2.7c0,1.5,1.2,2.7,2.7,2.7c1.5,0,2.7-1.2,2.7-2.7C34.7,30.5,33.5,29.3,32,29.3z"
		/>
</g>
</svg>
