<?xml version="1.0" encoding="utf-8"?>
<!-- Generator: Adobe Illustrator 23.0.1, SVG Export Plug-In . SVG Version: 6.00 Build 0)  -->
<svg version="1.1" id="レイヤー_1" xmlns="http://www.w3.org/2000/svg" xmlns:xlink="http://www.w3.org/1999/xlink" x="0px"
	 y="0px" viewBox="0 0 49.4 64" style="enable-background:new 0 0 49.4 64;" xml:space="preserve" preserveAspectRatio="xMinYMid" width="50" height="64">
<style type="text/css">
	.st0{fill:#222;}
</style>
<g>
	<path class="st0" d="M26.9,28.6v-3.8h16.5l6-7.1l-6-7.1H26.9V6c0.7-0.6,1.2-1.6,1.2-2.6c0-1.9-1.5-3.4-3.4-3.4
		c-1.9,0-3.4,1.5-3.4,3.4c0,1.1,0.5,2,1.2,2.6v4.4H8.9l-8.8,0l0,0h0l6,7.1l-3.6,4.3L0,24.7h0l0,0h22.5v3.8H6l-6,7.1l6,7.1h16.5v7.6
		v0v0h4.4v-7.6h13.7l8.8,0l0,0h0l-6-7.1l3.7-4.3l2.4-2.8h0l0,0H26.9z M13.8,21l-5.6,0l2.8-3.3l-2.8-3.3h14.3h4.4h14.7l2.8,3.3
		L41.7,21H26.9h-4.4H13.8z M40.2,37.7l1.1,1.3H26.9h-4.4H7.8L5,35.7l2.8-3.3h14.7h4.4h8.7l5.6,0l-2.8,3.3L40.2,37.7z"/>
	<path class="st0" d="M32.6,54.2c-0.1-0.6-0.6-1.1-1.2-1.1H18.1c-0.6,0-1.1,0.5-1.2,1.1l-1.2,8.3c-0.1,0.8,0.5,1.4,1.2,1.4h15.7
		c0.8,0,1.3-0.7,1.2-1.4L32.6,54.2z"/>
</g>
</svg>
