<?xml version="1.0" encoding="utf-8"?>
<!-- Generator: Adobe Illustrator 23.0.1, SVG Export Plug-In . SVG Version: 6.00 Build 0)  -->
<svg version="1.1" id="レイヤー_1" xmlns="http://www.w3.org/2000/svg" xmlns:xlink="http://www.w3.org/1999/xlink" x="0px"
	 y="0px" viewBox="0 0 86.9 128" style="enable-background:new 0 0 86.9 128;" xml:space="preserve" preserveAspectRatio="xMinYMid" width="87" height="128">
<style type="text/css">
	.st0{fill:#fff;}
</style>
<g>
	<path class="st0" d="M43.5,0C19.5,0,0,19.5,0,43.5c0,25.2,20,40.9,30.8,59.7C41.2,121.1,41.2,128,43.5,128c2.3,0,2.3-6.9,12.6-24.8
		c10.8-18.8,30.8-34.5,30.8-59.7C86.9,19.5,67.5,0,43.5,0z M43.5,60.1c-9.2,0-16.6-7.4-16.6-16.6c0-9.2,7.4-16.6,16.6-16.6
		c9.2,0,16.6,7.4,16.6,16.6C60.1,52.7,52.7,60.1,43.5,60.1z"/>
</g>
</svg>
