<?xml version="1.0" encoding="utf-8"?>
<!-- Generator: Adobe Illustrator 23.0.1, SVG Export Plug-In . SVG Version: 6.00 Build 0)  -->
<svg version="1.1" id="レイヤー_1" xmlns="http://www.w3.org/2000/svg" xmlns:xlink="http://www.w3.org/1999/xlink" x="0px"
	 y="0px" viewBox="0 0 64 57.1" style="enable-background:new 0 0 64 57.1;" xml:space="preserve" preserveAspectRatio="xMinYMid" width="64" height="58">
<style type="text/css">
	.st0{fill:#222;}
</style>
<g>
	<path class="st0" d="M64,32.1L64,32.1L51.7,19.7V6.1h-6.9v4l0,2.8L32,0l0,0l0,0l0,0L5.1,27L0,32l0,0l0,0l6.4,4.3l0.2-0.2l0.1-0.1
		v20.9h2.7h48.1V44.8l0-8.7l0.2,0.2l5.3-3.6L64,32.1L64,32.1z M32,10.6l21.1,21.1v21H42.9h-8.3h-6.5V32.1h-9.8v20.7h-7.5v-21
		L32,10.6L32,10.6z"/>
	<path class="st0" d="M35.8,43.4L35.8,43.4l10.1,0V32.1H35.8V43.4L35.8,43.4L35.8,43.4z M38.3,40.8v-6.2h4.9v6.2H38.3z"/>
</g>
</svg>
