<?xml version="1.0" encoding="utf-8"?>
<!-- Generator: Adobe Illustrator 28.0.0, SVG Export Plug-In . SVG Version: 6.00 Build 0)  -->
<svg version="1.1" id="_x32_" xmlns="http://www.w3.org/2000/svg" xmlns:xlink="http://www.w3.org/1999/xlink" x="0px" y="0px"
	 viewBox="0 0 512 512" style="enable-background:new 0 0 512 512;" xml:space="preserve">
<style type="text/css">
	.st0{fill:#FF0000;}
</style>
<g>
	<path class="st0" d="M256,0C114.6,0,0,114.6,0,256s114.6,256,256,256s256-114.6,256-256S397.4,0,256,0z M411.8,411.8
		c-39.9,39.9-94.9,64.5-155.8,64.5s-115.8-24.6-155.8-64.5c-0.3-0.3-0.5-0.6-0.8-0.8c4.4-2.1,8.8-4.3,13-6.7
		c6.4-3.7,8.6-11.9,4.9-18.3s-11.9-8.6-18.3-4.9c-5.7,3.3-11.7,6.2-17.8,8.7c-0.1,0-0.1,0.1-0.1,0.1C52.6,352.7,35.7,306.4,35.7,256
		c0-60.9,24.6-115.9,64.5-155.8S195.1,35.7,256,35.7s115.8,24.6,155.8,64.5c0.3,0.3,0.5,0.6,0.8,0.8c-4.6,2.1-9,4.4-13.4,6.9
		c-6.4,3.7-8.6,11.9-4.8,18.3c3.7,6.4,11.9,8.5,18.3,4.8c5.7-3.3,11.6-6.3,17.8-8.8c0.2-0.1,0.3-0.2,0.4-0.2
		c28.5,37.1,45.4,83.4,45.4,133.9C476.3,316.9,451.6,371.8,411.8,411.8z"/>
	<path class="st0" d="M170.2,323.2c-6.4-3.7-14.6-1.5-18.3,4.9c-3.3,5.8-7,11.3-11.1,16.5c-4.5,5.8-3.5,14.2,2.3,18.8
		c5.8,4.5,14.2,3.5,18.8-2.3c4.8-6.2,9.2-12.7,13.2-19.5C178.8,335.1,176.6,326.9,170.2,323.2z"/>
	<path class="st0" d="M131.4,120.5c-6.2-4.8-12.7-9.2-19.6-13.1c-6.4-3.7-14.6-1.5-18.3,5c-3.7,6.4-1.5,14.6,5,18.3
		c5.8,3.3,11.3,7,16.5,11.1c5.9,4.5,14.3,3.4,18.8-2.4C138.3,133.5,137.3,125.1,131.4,120.5z"/>
	<path class="st0" d="M160.4,201.1c2.8,6.8,10.6,10.1,17.5,7.3c6.8-2.8,10.1-10.6,7.3-17.5c-3-7.3-6.5-14.4-10.4-21.1
		c-3.7-6.4-11.9-8.5-18.3-4.8c-6.4,3.7-8.5,11.9-4.8,18.3C154.9,189,157.8,195,160.4,201.1z"/>
	<path class="st0" d="M184.5,241.9c-7.4,0-13.4,6.1-13.3,13.5v0.6c0,6.7-0.5,13.4-1.4,19.8c-1,7.3,4.1,14.1,11.4,15.1
		c7.3,1,14.1-4.1,15.1-11.5c1.1-7.7,1.6-15.5,1.6-23.5v-0.8C197.9,247.9,191.9,241.9,184.5,241.9z"/>
	<path class="st0" d="M340.8,256.3V256c0-6.6,0.4-13.1,1.3-19.5c1-7.3-4.2-14.1-11.5-15.1s-14.1,4.2-15.1,11.5
		c-1,7.6-1.5,15.3-1.5,23.1v0.4c0,7.4,6,13.4,13.4,13.4C334.9,269.7,340.9,263.7,340.8,256.3z"/>
	<path class="st0" d="M351.5,310.6c-2.8-6.8-10.6-10.1-17.5-7.3c-6.8,2.8-10.1,10.6-7.3,17.5c3,7.3,6.5,14.4,10.4,21.1
		c3.7,6.4,11.9,8.6,18.3,4.8s8.6-11.9,4.9-18.3C357,322.7,354,316.8,351.5,310.6z"/>
	<path class="st0" d="M413.2,381.2L413.2,381.2c-5.8-3.3-11.3-7-16.5-11.1c-5.8-4.5-14.3-3.5-18.8,2.4c-4.5,5.8-3.5,14.2,2.4,18.8
		c6.2,4.8,12.7,9.2,19.6,13.1c6.4,3.7,14.6,1.5,18.3-4.9C421.8,393.1,419.6,384.9,413.2,381.2z"/>
	<path class="st0" d="M368.7,148.8c-5.8-4.5-14.3-3.5-18.8,2.4c-4.8,6.2-9.2,12.7-13.1,19.6c-3.7,6.4-1.5,14.6,4.9,18.3
		s14.6,1.5,18.3-4.9c3.3-5.8,7-11.3,11.1-16.5C375.6,161.8,374.5,153.4,368.7,148.8z"/>
</g>
</svg>
