<?xml version="1.0" encoding="utf-8"?>
<!-- Generator: Adobe Illustrator 25.1.0, SVG Export Plug-In . SVG Version: 6.00 Build 0)  -->
<svg version="1.1" id="レイヤー_1" xmlns="http://www.w3.org/2000/svg" xmlns:xlink="http://www.w3.org/1999/xlink" x="0px"
	 y="0px" viewBox="0 0 128 118.5" style="enable-background:new 0 0 128 118.5;" xml:space="preserve" preserveAspectRatio="xMinYMid" width="128" height="119">
<style type="text/css">
	.st0{fill:#111111;}
</style>
<g>
	<path class="st0" d="M95.6,40.3c11.1,0,20.2-9,20.2-20.2S106.7,0,95.6,0C84.4,0,75.4,9,75.4,20.2S84.4,40.3,95.6,40.3z"/>
	<rect y="105.2" class="st0" width="128" height="13.3"/>
	<path class="st0" d="M89.4,101.7h27.9V67.3c0-12-9.7-21.7-21.7-21.7c-12,0-21.7,9.7-21.7,21.7v20.3h15.6V101.7z"/>
	<polygon class="st0" points="31.9,101.7 65.5,101.7 85.9,101.7 85.9,91.2 60.6,91.2 50,62.2 0.3,62.2 15.8,101.7 	"/>
</g>
</svg>
