<?xml version="1.0" encoding="utf-8"?>
<!-- Generator: Adobe Illustrator 25.1.0, SVG Export Plug-In . SVG Version: 6.00 Build 0)  -->
<svg version="1.1" id="レイヤー_1" xmlns="http://www.w3.org/2000/svg" xmlns:xlink="http://www.w3.org/1999/xlink" x="0px"
	 y="0px" viewBox="0 0 51.4 128" style="enable-background:new 0 0 51.4 128;" xml:space="preserve" preserveAspectRatio="xMinYMid" width="52" height="128">
<style type="text/css">
	.st0{fill:#111111;}
</style>
<g>
	<path class="st0" d="M25.5,36.3c-9.6,9.2-11.8,20.2-11.8,20.2S-5.9,68.8,1.8,95.9h23l3.4,25.7c0.5,3.7,3.6,6.4,7.3,6.4h1.3
		c4.1,0,7.4-3.3,7.4-7.4V95.9h3c0,0,0-47.3,0-58.5C47.2,28.7,34.2,27.9,25.5,36.3z"/>
	<path class="st0" d="M38.1,0c-7.4,0-13.4,6-13.4,13.4c0,7.4,6,13.4,13.4,13.4s13.4-6,13.4-13.4C51.4,6,45.5,0,38.1,0z"/>
</g>
</svg>
