<?xml version="1.0" encoding="utf-8"?>
<!-- Generator: Adobe Illustrator 25.1.0, SVG Export Plug-In . SVG Version: 6.00 Build 0)  -->
<svg version="1.1" id="レイヤー_1" xmlns="http://www.w3.org/2000/svg" xmlns:xlink="http://www.w3.org/1999/xlink" x="0px"
	 y="0px" viewBox="0 0 78.3 128" style="enable-background:new 0 0 78.3 128;" xml:space="preserve" preserveAspectRatio="xMinYMid" width="79" height="128">
<style type="text/css">
	.st0{fill:#111111;}
</style>
<g>
	<path class="st0" d="M32.1,46.2c0-1.4-1.2-2.6-2.6-2.6c-1.4,0-2.6,1.2-2.6,2.6c0,1.4,1.2,2.6,2.6,2.6
		C30.9,48.8,32.1,47.6,32.1,46.2z"/>
	<path class="st0" d="M48.8,43.6c-1.4,0-2.6,1.2-2.6,2.6c0,1.4,1.2,2.6,2.6,2.6c1.4,0,2.6-1.2,2.6-2.6
		C51.4,44.7,50.3,43.6,48.8,43.6z"/>
	<path class="st0" d="M46.3,55.1c-1.6,2.3-4.3,3.7-7.2,3.7c-2.9,0-5.6-1.4-7.2-3.7c-0.4-0.6-1.3-0.8-1.9-0.3
		c-0.6,0.4-0.8,1.3-0.3,1.9c2.1,3,5.6,4.8,9.4,4.8c3.8,0,7.3-1.9,9.4-4.8c0.4-0.6,0.3-1.5-0.3-1.9C47.6,54.4,46.8,54.5,46.3,55.1z"
		/>
	<path class="st0" d="M78.1,43.4C76.7,14.6,43.7,0,39.1,0c-4.6,0-37.6,14.6-39,43.4c-1.3,25.9,4.2,84.6,39,84.6S79.4,69.3,78.1,43.4
		z M35.7,20.9c1-0.1,2.1-0.2,3.1-0.2c1.4,0,2.9,0.1,4.2,0.4c0.1,0.2,0.3,0.4,0.4,0.6c0.6,0.9,1.2,2.4,1.2,4.8c0,1.8-0.4,4-1.4,6.9
		c-3.3-2.7-5.2-5.1-6.3-7.2c-1.2-2.2-1.4-3.9-1.4-4.9C35.7,21.1,35.7,21,35.7,20.9z M33.4,21.3c0,1.3,0.3,3.4,1.6,5.9
		c0.6,1.1,1.4,2.3,2.4,3.6c-1.1-0.4-2.1-0.8-3.1-1.2c-1.7-0.7-3.2-1.5-4.2-2.6c-0.5-0.5-0.9-1.1-1.2-1.9c-0.2-0.6-0.4-1.3-0.4-2.1
		C30,22.2,31.7,21.7,33.4,21.3z M32.1,72.9c1.6,0.4,3.3,0.6,5,0.8l6.1,5.4l6.8-7.6c1.3-0.6,2.6-1.2,3.7-1.9c0.5,0.5,0.5,1.3,0,1.8
		L45.2,81l14.7,13.2c0.6,0.5,0.6,1.4,0.1,1.9c-0.5,0.6-1.4,0.6-1.9,0.1 M69.4,51c-0.8,0.8-2,1.3-3.2,1.3c-0.5,0-1-0.1-1.5-0.3
		l-1.9-0.7l-0.6,1.9c-1.7,4.8-4.8,8.9-8.8,11.9c-4,2.9-9,4.6-14.4,4.7c-5.4,0-10.3-1.7-14.3-4.6c-4-2.9-7.2-7-8.8-11.8l-0.6-1.7
		l-1.8,0.5c-0.4,0.1-0.8,0.2-1.2,0.2c-1.3,0-2.4-0.5-3.2-1.3c-0.8-0.8-1.3-2-1.3-3.2c0-1.3,0.5-2.4,1.3-3.2c0.8-0.8,2-1.3,3.2-1.3
		c0.1,0,0.2,0,0.4,0l1.8,0.1l0.3-1.8c0.9-5.9,3.9-11.1,8.2-14.9c1.1-0.9,2.2-1.8,3.5-2.5c0.1,0.7,0.3,1.3,0.5,1.9
		c0.4,0.9,0.9,1.7,1.5,2.4c1.1,1.2,2.4,2,3.8,2.7c2.1,1,4.3,1.7,6.2,2.6c0.9,0.4,1.8,0.9,2.5,1.5c0.7,0.5,1.2,1.2,1.6,1.9
		c0.2,0.4,0.6,0.6,1.1,0.6c0.5,0,0.9-0.3,1-0.7c2-4.4,2.8-7.9,2.8-10.6c0-1.9-0.3-3.4-0.8-4.6c3.2,1,6.2,2.7,8.7,4.9
		c4.3,3.8,7.3,9,8.2,14.9l0.3,2l1.9-0.3c0.3,0,0.5-0.1,0.7-0.1c1.3,0,2.4,0.5,3.2,1.3c0.8,0.8,1.3,2,1.3,3.2
		C70.7,49,70.2,50.2,69.4,51z"/>
</g>
</svg>
