<?xml version="1.0" encoding="utf-8"?>
<!-- Generator: Adobe Illustrator 25.1.0, SVG Export Plug-In . SVG Version: 6.00 Build 0)  -->
<svg version="1.1" id="レイヤー_1" xmlns="http://www.w3.org/2000/svg" xmlns:xlink="http://www.w3.org/1999/xlink" x="0px"
	 y="0px" viewBox="0 0 128 110" style="enable-background:new 0 0 128 110;" xml:space="preserve" preserveAspectRatio="xMinYMid" width="128" height="110">
<style type="text/css">
	.st0{fill:#111111;}
</style>
<g>
	<path class="st0" d="M19.7,20.7c5.7,0,10.4-4.6,10.4-10.4C30,4.6,25.4,0,19.7,0C13.9,0,9.3,4.6,9.3,10.4
		C9.3,16.1,13.9,20.7,19.7,20.7z"/>
	<path class="st0" d="M63.9,48.2L63.9,48.2C64,48.2,64,48.2,63.9,48.2c0.1,0,0.1,0,0.1,0v0c3.9-0.1,7-3.2,7-7.2c0-3.9-3.1-7.1-7-7.2
		v0c0,0,0,0-0.1,0c0,0,0,0-0.1,0v0c-3.9,0.1-7,3.2-7,7.2C56.9,44.9,60,48.1,63.9,48.2z"/>
	<path class="st0" d="M108.3,20.7c5.7,0,10.4-4.6,10.4-10.4c0-5.7-4.6-10.4-10.4-10.4C102.6,0,98,4.6,98,10.4
		C98,16.1,102.6,20.7,108.3,20.7z"/>
	<path class="st0" d="M128,70.9V36.1c0-5-5.5-10.5-10.5-10.5h-1.4l-7.2,7.2l-7.1-7.1c-4.5,0.7-8.4,3.4-10.5,7.5L83,57.8
		c-0.3,0.6-0.8,1-1.4,1.1c-0.6,0.1-1.3-0.1-1.7-0.5l-5.2-4.5c-1.6-1.4-3.6-2.2-5.7-2.2H64h-4.9c-2.1,0-4.2,0.8-5.7,2.2l-5.2,4.5
		c-0.5,0.4-1.1,0.6-1.7,0.5c-0.6-0.1-1.2-0.5-1.4-1.1l-8.4-24.5c-2.4-4.7-7.2-7.7-12.5-7.7h-4.6h-9.1C5.5,25.6,0,31.1,0,36.1v34.8
		c0,2.5,2,4.5,4.5,4.5c1.2,0,0,0,3.2,0l1.7,29.7c0,2.7,2.2,4.8,4.8,4.8c1.1,0,3.2,0,5.3,0c2.1,0,4.2,0,5.3,0c2.7,0,4.8-2.2,4.8-4.8
		l1.7-29.7l0-21.2c0-0.3,0.2-0.6,0.6-0.7c0.3-0.1,0.7,0.1,0.8,0.4l6.6,16.4c0.8,1.6,2.3,2.7,4,3c1.7,0.3,3.5-0.2,4.8-1.4l6.4-4.7
		c0.2-0.2,0.5-0.2,0.8-0.1c0.3,0.1,0.4,0.4,0.4,0.7l0,18.4l1.2,20.5c0,1.8,1.5,3.3,3.3,3.3c0.8,0,2.2,0,3.7,0c1.4,0,2.9,0,3.7,0
		c1.8,0,3.3-1.5,3.3-3.3l1.2-20.5l0-18.4c0-0.3,0.2-0.5,0.4-0.7c0.3-0.1,0.6-0.1,0.8,0.1l6.4,4.7c1.3,1.2,3.1,1.7,4.8,1.4
		c1.7-0.3,3.2-1.4,4-3l6.6-16.4c0.2-0.3,0.5-0.5,0.8-0.4c0.3,0.1,0.6,0.4,0.6,0.7l0,8.1l-7,21.7c-0.2,0.5-0.1,1.1,0.2,1.5
		c0.3,0.4,0.8,0.7,1.4,0.7h6l1.1,18.9c0,2.7,2.2,4.8,4.8,4.8c1.1,0,3.2,0,5.3,0c2.1,0,4.2,0,5.3,0c2.7,0,4.8-2.2,4.8-4.8l1.1-18.9
		h6.6c0.5,0,1-0.3,1.4-0.7c0.3-0.4,0.4-1,0.2-1.5l-2.8-8.8C126.8,74.5,128,72.8,128,70.9z M21.4,30.7v18.6h-5.5V30.7H21.4z"/>
</g>
</svg>
