<?xml version="1.0" encoding="utf-8"?>
<!-- Generator: Adobe Illustrator 25.1.0, SVG Export Plug-In . SVG Version: 6.00 Build 0)  -->
<svg version="1.1" id="レイヤー_1" xmlns="http://www.w3.org/2000/svg" xmlns:xlink="http://www.w3.org/1999/xlink" x="0px"
	 y="0px" viewBox="0 0 128 128" style="enable-background:new 0 0 128 128;" xml:space="preserve" preserveAspectRatio="xMinYMid" width="128" height="128">
<style type="text/css">
	.st0{fill:#111111;}
</style>
<g>
	<path class="st0" d="M45.3,56.3l16.2,12.5l0.2,0.1l0.1,0.1c1.4,0.8,3.3,0.4,4.5-1l0.1-0.1l19.9-23.5c1.1-1.3,1.1-3.1,0-4.1
		c-1.1-1-2.9-0.7-4,0.5L63.7,60.7l-14.3-10c-1.3-1-3.4-0.5-4.5,1C43.8,53.3,43.9,55.4,45.3,56.3z"/>
	<path class="st0" d="M25.1,64c0-0.9,0-1.7,0.1-2.6H15C15,62.3,15,63.1,15,64c0,0.9,0,1.7,0.1,2.6h10.2C25.1,65.7,25.1,64.9,25.1,64
		z"/>
	<path class="st0" d="M43.1,31.2c1-0.6,1.9-1.2,2.9-1.7l0.4-0.2l-5.1-8.8c-1.3,0.6-2.5,1.3-3.7,2.1l5.1,8.8L43.1,31.2z"/>
	<path class="st0" d="M20.5,41.4l8.8,5.1l2.1-3.7l-8.8-5.1C21.9,38.9,21.2,40.1,20.5,41.4z"/>
	<path class="st0" d="M98.5,82c-0.5,1-1.1,2-1.7,2.9l-0.3,0.4l8.8,5.1c0.8-1.2,1.5-2.4,2.1-3.7l-8.8-5.1L98.5,82z"/>
	<path class="st0" d="M29.5,81.9l-0.2-0.4l-8.8,5.1c0.6,1.3,1.3,2.5,2.1,3.7l8.8-5.1l-0.3-0.4C30.6,83.9,30,83,29.5,81.9z"/>
	<path class="st0" d="M43.1,96.8l-0.4-0.3l-5.1,8.8c1.2,0.8,2.4,1.5,3.7,2.1l5.1-8.8L46,98.5C45,98,44.1,97.4,43.1,96.8z"/>
	<path class="st0" d="M81.6,29.3l3.7,2.1l5.1-8.8c-1.2-0.8-2.4-1.5-3.7-2.1L81.6,29.3z"/>
	<path class="st0" d="M61.4,102.8v10.2c0.8,0.1,1.7,0.1,2.6,0.1c0.9,0,1.7,0,2.6-0.1v-10.2v-0.1h-5.1V102.8z"/>
	<path class="st0" d="M66.6,25.2V15.1C65.7,15,64.9,15,64,15c-0.9,0-1.7,0-2.6,0.1v10.2v0.1h5.1V25.2z"/>
	<path class="st0" d="M81.6,98.7l5.1,8.8c1.3-0.7,2.5-1.4,3.7-2.1l-5.1-8.8L81.6,98.7z"/>
	<path class="st0" d="M107.5,41.4c-0.6-1.3-1.4-2.5-2.1-3.7l-8.8,5.1l2.2,3.7L107.5,41.4z"/>
	<path class="st0" d="M113,61.4h-10.2h-0.1v5.1h0.1H113c0.1-0.8,0.1-1.7,0.1-2.6C113,63.1,113,62.3,113,61.4z"/>
	<path class="st0" d="M64,0C28.7,0,0,28.7,0,64c0,35.3,28.7,64,64,64c35.3,0,64-28.7,64-64C128,28.7,99.3,0,64,0z M64,119.7
		c-15.4,0-29.3-6.2-39.4-16.3C14.5,93.3,8.3,79.4,8.3,64c0-15.4,6.2-29.3,16.3-39.4C34.7,14.5,48.6,8.3,64,8.3
		c15.4,0,29.3,6.2,39.4,16.3c10.1,10.1,16.3,24,16.3,39.4c0,15.4-6.2,29.3-16.3,39.4C93.3,113.5,79.4,119.7,64,119.7z"/>
</g>
</svg>
