<?xml version="1.0" encoding="utf-8"?>
<!-- Generator: Adobe Illustrator 27.9.4, SVG Export Plug-In . SVG Version: 9.03 Build 54784)  -->
<svg version="1.1" id="_x32_" xmlns="http://www.w3.org/2000/svg" xmlns:xlink="http://www.w3.org/1999/xlink" x="0px" y="0px"
	 viewBox="0 0 59.7 59.7" style="enable-background:new 0 0 59.7 59.7;" xml:space="preserve">
<style type="text/css">
	.st0{fill:#EE0000;}
	.st1{fill:#FFFFFF;}
</style>
<g>
	<circle class="st0" cx="29.8" cy="29.8" r="29.8"/>
	<g>
		<path class="st1" d="M43.7,41.1c-0.3-1.4-1.2-2.6-2.5-3.2l-5.7-2.3c-0.9-0.4-1.6-1.4-1.6-2.4v-0.8c0-0.4,0.1-0.8,0.2-1.2
			c0,0,3.6-4.8,3.6-9.2c0-5.5-3.5-9-7.9-9c-4.3,0-7.9,3.5-7.9,9c0,4.4,3.6,9.2,3.6,9.2c0.1,0.4,0.2,0.8,0.2,1.2v0.8
			c0,1-0.6,2-1.6,2.4l-5.7,2.3c-1.3,0.6-2.3,1.8-2.5,3.2l-0.3,3.8h14.1H44L43.7,41.1z"/>
	</g>
</g>
</svg>
